<svg xmlns="http://www.w3.org/2000/svg" width="46" height="46" viewBox="0 0 48 48">
  <path fill="#EA4335" d="M24 9.5c3.54 0 6.71 1.22 9.21 3.6l6.85-6.85C35.36 1.92 30.05 0 24 0 14.62 0 6.51 5.38 2.56 13.22l7.98 6.19C12.53 13.14 17.74 9.5 24 9.5z"/>
  <path fill="#4285F4" d="M46.14 24.55c0-1.57-.14-3.09-.39-4.55H24v9.02h12.43c-.54 2.89-2.18 5.34-4.63 6.98l7.31 5.66C43.96 37.16 46.14 31.29 46.14 24.55z"/>
  <path fill="#FBBC05" d="M10.54 28.03c-.52-1.57-.82-3.24-.82-5.03 0-1.79.3-3.46.82-5.03l-7.98-6.2C.92 15.76 0 19.76 0 24c0 4.24.92 8.24 2.56 11.23l7.98-6.19z"/>
  <path fill="#34A853" d="M24 48c6.05 0 11.36-1.93 15.53-5.24l-7.31-5.66c-2.05 1.38-4.68 2.19-8.22 2.19-6.26 0-11.47-3.64-13.46-8.91l-7.98 6.19C6.51 42.62 14.62 48 24 48z"/>
</svg>
